The Pelican Brief (1993) [BDRip720p][Nautilus-BT]
Join www.nautilus-bt.org

[img]http://img844.imageshack.us/img844/1065/326662.jpg[/img]

Link IMDb : http://www.imdb.com/title/tt0107798/

Two Supreme Court Justices have been killed. Now a college professor, who clerked for one of the two men, who's also having an affair with one of his students, is given a brief by her, that states who probably, wanted to see these two men dead. He then gives it to one of his friends, who works for the FBI. When the FBI director reads it, he is fascinated by it. One of the preseident's men who read it, is afraid that if it ever got out, the president could be smeared. So, he adivises the president to tell the director to drop it, which he does. But later the professor and the girl were out and he was drunk and when he refused to give her the keys she stepped out of the car. When he started it, it blew up. She then discovers that her place has been burglarized and what was taken were her computer and her disks. Obviously, her brief has someone agitated. She then turns to her boyfriend's friend at the FBI...


Titolo italiano : Il rapporto Pelican
Titolo originale : The Pelican Brief
Anno : 1993
Genere : thriller
Paese : USA
Sceneggiatura : Alan J. Pakula
Regia : Alan J. Pakula
Scenografia : Philip Rosenberg
Soggetto : John Grisham (romanzo)


Lingue : Italiano - Inglese
Sottotitoli : Italiano
Sottotitoli per non udenti : Italiano - Inglese
Capitoli : si



[img]http://img339.imageshack.us/img339/6882/pelicanquantanal.png[/img]

General
Complete name                    : Il rapporto Pelican - The Pelican Brief (1993) [BDRip720p Ita-Eng] by Pitt@Sk8.mkv
Format                           : Matroska
File size                        : 4.38 GiB
Duration                         : 2h 21mn
Overall bit rate                 : 4 438 Kbps
Encoded date                     : UTC 2011-01-09 12:01:16
Writing application              : mkvmerge v4.0.0 ('The Stars were mine') built on Jun  6 2010 16:18:42
Writing library                  : libebml v1.0.0 + libmatroska v1.0.0

Video
ID                               : 1
Format                           : AVC
Format/Info                      : Advanced Video Codec
Format profile                   : High@L4.1
Format settings, CABAC           : Yes
Format settings, ReFrames        : 3 frames
Format settings, GOP             : M=4, N=39
Muxing mode                      : Container profile=Unknown@4.1
Codec ID                         : V_MPEG4/ISO/AVC
Duration                         : 2h 21mn
Bit rate mode                    : Variable
Bit rate                         : 3 911 Kbps
Maximum bit rate                 : 46.0 Mbps
Width                            : 1 280 pixels
Height                           : 534 pixels
Display aspect ratio             : 16:9
Frame rate                       : 23.976 fps
Color space                      : YUV
Chroma subsampling               : 4:2:0
Bit depth                        : 8 bits
Scan type                        : Progressive
Bits/(Pixel*Frame)               : 0.239
Stream size                      : 3.78 GiB (86%)
Title                            : BDRip720p by Pitt@Sk8
Writing library                  : x264 core 104 r1713 c276662
Encoding settings                : cabac=1 / ref=3 / deblock=1:0:0 / analyse=0x3:0x133 / me=hex / subme=7 / psy=1 / psy_rd=1.00:0.00 / mixed_ref=1 / me_range=16 / chroma_me=1 / trellis=1 / 8x8dct=1 / cqm=0 / deadzone=21,11 / fast_pskip=1 / chroma_qp_offset=-2 / threads=6 / sliced_threads=0 / slices=4 / nr=0 / decimate=1 / interlaced=0 / constrained_intra=0 / bframes=3 / b_pyramid=1 / b_adapt=1 / b_bias=0 / direct=1 / weightb=1 / open_gop=2 / weightp=2 / keyint=240 / keyint_min=23 / scenecut=40 / intra_refresh=0 / rc_lookahead=40 / rc=2pass / mbtree=1 / bitrate=3911 / ratetol=1.0 / qcomp=0.60 / qpmin=10 / qpmax=51 / qpstep=4 / cplxblur=20.0 / qblur=0.5 / vbv_maxrate=46000 / vbv_bufsize=46000 / ip_ratio=1.40 / aq=1:1.00 / nal_hrd=vbr

Audio #1
ID                               : 2
Format                           : AC-3
Format/Info                      : Audio Coding 3
Format profile                   : Dolby Digital
Mode extension                   : CM (complete main)
Codec ID                         : A_AC3
Duration                         : 2h 21mn
Bit rate mode                    : Constant
Bit rate                         : 192 Kbps
Channel(s)                       : 2 channels
Channel positions                : Front: L R
Sampling rate                    : 48.0 KHz
Bit depth                        : 16 bits
Stream size                      : 194 MiB (4%)
Title                            : Italiano AC3 2.0 192 kbps - Pitt@Sk8
Language                         : Italian

Audio #2
ID                               : 3
Format                           : AC-3
Format/Info                      : Audio Coding 3
Mode extension                   : CM (complete main)
Codec ID                         : A_AC3
Duration                         : 2h 21mn
Bit rate mode                    : Constant
Bit rate                         : 320 Kbps
Channel(s)                       : 6 channels
Channel positions                : Front: L C R, Side: L R, LFE
Sampling rate                    : 48.0 KHz
Bit depth                        : 16 bits
Stream size                      : 323 MiB (7%)
Title                            : English AC3 5.1 320 kbps - Pitt@Sk8
Language                         : English

Text #1
ID                               : 4
Format                           : UTF-8
Codec ID                         : S_TEXT/UTF8
Codec ID/Info                    : UTF-8 Plain Text
Title                            : Vuoto - Pitt@Sk8
Language                         : Italian

Text #2
ID                               : 5
Format                           : VobSub
Codec ID                         : S_VOBSUB
Codec ID/Info                    : The same subtitle format used on DVDs
Title                            : Sottotitoli - Italiano
Language                         : Italian

Text #3
ID                               : 6
Format                           : VobSub
Codec ID                         : S_VOBSUB
Codec ID/Info                    : The same subtitle format used on DVDs
Title                            : Sottotitoli - Italiano per non udenti
Language                         : Italian

Text #4
ID                               : 7
Format                           : VobSub
Codec ID                         : S_VOBSUB
Codec ID/Info                    : The same subtitle format used on DVDs
Title                            : Subtitle English [deaf]
Language                         : English

Menu
00:00:00.000                     : en:The Pelican Brief -01- Pitt@Sk8
00:02:32.986                     : en:The Pelican Brief -02- Pitt@Sk8
00:04:20.343                     : en:The Pelican Brief -03- Pitt@Sk8
00:07:47.509                     : en:The Pelican Brief -04- Pitt@Sk8
00:09:48.338                     : en:The Pelican Brief -05- Pitt@Sk8
00:13:42.155                     : en:The Pelican Brief -06- Pitt@Sk8
00:16:25.902                     : en:The Pelican Brief -07- Pitt@Sk8
00:20:04.245                     : en:The Pelican Brief -08- Pitt@Sk8
00:26:26.585                     : en:The Pelican Brief -09- Pitt@Sk8
00:29:42.823                     : en:The Pelican Brief -10- Pitt@Sk8
00:33:19.998                     : en:The Pelican Brief -11- Pitt@Sk8
00:36:28.228                     : en:The Pelican Brief -12- Pitt@Sk8
00:41:22.814                     : en:The Pelican Brief -13- Pitt@Sk8
00:43:16.177                     : en:The Pelican Brief -14- Pitt@Sk8
00:45:32.146                     : en:The Pelican Brief -15- Pitt@Sk8
00:47:41.984                     : en:The Pelican Brief -16- Pitt@Sk8
00:51:00.140                     : en:The Pelican Brief -17- Pitt@Sk8
00:55:29.159                     : en:The Pelican Brief -18- Pitt@Sk8
00:57:17.309                     : en:The Pelican Brief -19- Pitt@Sk8
01:01:44.743                     : en:The Pelican Brief -20- Pitt@Sk8
01:05:48.611                     : en:The Pelican Brief -21- Pitt@Sk8
01:09:54.399                     : en:The Pelican Brief -22- Pitt@Sk8
01:11:09.432                     : en:The Pelican Brief -23- Pitt@Sk8
01:17:38.153                     : en:The Pelican Brief -24- Pitt@Sk8
01:21:08.155                     : en:The Pelican Brief -25- Pitt@Sk8
01:23:41.934                     : en:The Pelican Brief -26- Pitt@Sk8
01:26:52.749                     : en:The Pelican Brief -27- Pitt@Sk8
01:29:32.784                     : en:The Pelican Brief -28- Pitt@Sk8
01:31:36.491                     : en:The Pelican Brief -29- Pitt@Sk8
01:34:03.137                     : en:The Pelican Brief -30- Pitt@Sk8
01:37:08.698                     : en:The Pelican Brief -31- Pitt@Sk8
01:40:41.953                     : en:The Pelican Brief -32- Pitt@Sk8
01:43:52.059                     : en:The Pelican Brief -33- Pitt@Sk8
01:45:39.458                     : en:The Pelican Brief -34- Pitt@Sk8
01:50:08.227                     : en:The Pelican Brief -35- Pitt@Sk8
01:55:06.608                     : en:The Pelican Brief -36- Pitt@Sk8
02:00:11.871                     : en:The Pelican Brief -37- Pitt@Sk8
02:03:07.505                     : en:The Pelican Brief -38- Pitt@Sk8
02:05:17.635                     : en:The Pelican Brief -39- Pitt@Sk8
02:10:59.643                     : en:The Pelican Brief -40- Pitt@Sk8
02:14:45.577                     : en:The Pelican Brief -41- Pitt@Sk8
02:16:51.537                     : en:The Pelican Brief -42- Pitt@Sk8

[img]http://img259.imageshack.us/img259/9696/ilrapportopelicanthepel.jpg[/img]

[img]http://img441.imageshack.us/img441/9696/ilrapportopelicanthepel.jpg[/img]

[img]http://img821.imageshack.us/img821/9696/ilrapportopelicanthepel.jpg[/img]

[img]http://img545.imageshack.us/img545/9696/ilrapportopelicanthepel.jpg[/img]

[img]http://img513.imageshack.us/img513/9696/ilrapportopelicanthepel.jpg[/img]

[img]http://img818.imageshack.us/img818/9696/ilrapportopelicanthepel.jpg[/img]

Join www.nautilus-bt.org
